<?xml version="1.0" standalone="no"?>
<!DOCTYPE svg PUBLIC "-//W3C//DTD SVG 20010904//EN"
 "http://www.w3.org/TR/2001/REC-SVG-20010904/DTD/svg10.dtd">
<svg version="1.0" xmlns="http://www.w3.org/2000/svg"
 width="447.000000pt" height="447.000000pt" viewBox="0 0 447.000000 447.000000"
 preserveAspectRatio="xMidYMid meet">
<metadata>
Created by potrace 1.14, written by Peter Selinger 2001-2017
</metadata>
<g transform="translate(0.000000,447.000000) scale(0.100000,-0.100000)"
fill="#000000" stroke="none">
<path d="M2080 4374 c-487 -43 -919 -212 -1275 -499 -654 -527 -935 -1361
-726 -2160 249 -950 1136 -1615 2156 -1615 526 0 1032 178 1440 507 686 552
954 1455 679 2283 -259 779 -943 1338 -1794 1465 -103 15 -392 27 -480 19z
m521 -434 c218 -45 450 -134 619 -239 437 -272 727 -693 816 -1186 25 -139 25
-434 1 -560 -68 -345 -216 -636 -452 -883 -550 -578 -1436 -736 -2165 -386
-501 240 -855 682 -969 1206 -32 148 -46 366 -32 501 41 389 199 728 470 1010
256 265 542 429 906 520 229 58 572 65 806 17z"/>
<path d="M1775 3403 c-39 -8 -99 -58 -122 -102 -22 -42 -23 -53 -23 -258 l0
-213 -212 0 c-125 0 -229 -5 -253 -11 -52 -15 -119 -82 -134 -134 -16 -57 -15
-850 1 -896 18 -52 55 -96 102 -118 39 -19 61 -21 269 -21 l227 0 0 -213 c0
-201 1 -215 23 -257 12 -24 39 -58 60 -74 l39 -31 461 -3 c297 -2 475 1 497 7
20 6 50 25 69 43 63 62 65 72 69 311 l4 217 219 0 c176 0 227 3 257 15 47 20
79 50 103 97 18 35 19 64 19 476 l0 439 -23 44 c-16 29 -40 54 -72 74 l-48 30
-228 3 -227 3 -4 212 c-3 194 -5 215 -25 253 -27 52 -72 90 -121 104 -35 9
-881 13 -927 3z m665 -605 c0 -184 3 -218 19 -253 23 -51 79 -101 128 -114 21
-6 133 -11 251 -11 l212 0 0 -185 0 -185 -228 0 c-220 0 -231 -1 -273 -23 -24
-13 -57 -43 -74 -66 l-30 -43 -3 -224 -3 -224 -204 0 -204 0 -3 228 -3 229
-27 36 c-16 19 -43 46 -60 59 -32 22 -41 23 -270 26 l-238 3 0 184 0 184 228
3 227 3 47 28 c29 17 57 44 73 71 25 42 25 46 25 258 0 118 3 218 7 221 3 4
96 7 205 7 l198 0 0 -212z"/>
</g>
</svg>
