<?xml version="1.0" encoding="utf-8"?>
<!-- Generator: Adobe Illustrator 18.0.0, SVG Export Plug-In . SVG Version: 6.00 Build 0)  -->
<!DOCTYPE svg PUBLIC "-//W3C//DTD SVG 1.1//EN" "http://www.w3.org/Graphics/SVG/1.1/DTD/svg11.dtd">
<svg version="1.1" id="Layer_1" xmlns="http://www.w3.org/2000/svg" xmlns:xlink="http://www.w3.org/1999/xlink" x="0px" y="0px"
	 width="85px" height="85px" viewBox="0 0 85 85" style="enable-background:new 0 0 85 85;" xml:space="preserve">
<style type="text/css">
	.st0{fill:#5e5e5e;}
	.st1{fill:#39324B;}
</style>
<circle class="st0" cx="42.5" cy="42.5" r="42.5"/>
<g>
	<path class="st1" d="M59.5,58.2l-2.5-27.6c-0.1-0.5-0.5-1-1-1h-5.2c0-4.6-3.7-8.3-8.3-8.3c-4.6,0-8.3,3.7-8.3,8.3H29
		c-0.5,0-1,0.4-1,1l-2.5,27.6v0.1c0,3.1,2.8,5.5,6.3,5.5h21.4C56.6,63.8,59.5,61.3,59.5,58.2L59.5,58.2L59.5,58.2z M42.5,23.4
		c3.4,0,6.2,2.8,6.2,6.2H36.3C36.3,26.2,39.1,23.4,42.5,23.4L42.5,23.4z M53.2,61.7H31.9c-2.3,0-4.1-1.5-4.2-3.4L30,31.7h4.2v3.7
		c0,0.6,0.4,1,1,1c0.6,0,1-0.4,1-1v-3.7h12.4v3.7c0,0.6,0.4,1,1,1s1-0.4,1-1v-3.7H55l2.3,26.5C57.4,60.2,55.5,61.7,53.2,61.7
		L53.2,61.7z"/>
</g>
</svg>
