<?xml version="1.0" encoding="UTF-8" standalone="no"?>
<!-- Generator: Adobe Illustrator 18.0.0, SVG Export Plug-In . SVG Version: 6.00 Build 0)  -->

<svg
   version="1.1"
   id="Layer_1"
   x="0px"
   y="0px"
   width="85px"
   height="85px"
   viewBox="0 0 85 85"
   style="enable-background:new 0 0 85 85;"
   xml:space="preserve"
   sodipodi:docname="bag_icon.svg"
   inkscape:version="1.3 (0e150ed6c4, 2023-07-21)"
   xmlns:inkscape="http://www.inkscape.org/namespaces/inkscape"
   xmlns:sodipodi="http://sodipodi.sourceforge.net/DTD/sodipodi-0.dtd"
   xmlns="http://www.w3.org/2000/svg"
   xmlns:svg="http://www.w3.org/2000/svg"><defs
   id="defs1" /><sodipodi:namedview
   id="namedview1"
   pagecolor="#ffffff"
   bordercolor="#000000"
   borderopacity="0.25"
   inkscape:showpageshadow="2"
   inkscape:pageopacity="0.0"
   inkscape:pagecheckerboard="0"
   inkscape:deskcolor="#d1d1d1"
   inkscape:zoom="9.4"
   inkscape:cx="42.446809"
   inkscape:cy="42.5"
   inkscape:window-width="1920"
   inkscape:window-height="1013"
   inkscape:window-x="2391"
   inkscape:window-y="89"
   inkscape:window-maximized="1"
   inkscape:current-layer="Layer_1" />&#10;<style
   type="text/css"
   id="style1">&#10;	.st0{fill:#5e5e5e;}&#10;	.st1{fill:#39324B;}&#10;</style>&#10;&#10;<g
   id="g1"
   style="fill:#a3a29c;fill-opacity:1">&#10;	<path
   class="st1"
   d="M59.5,58.2l-2.5-27.6c-0.1-0.5-0.5-1-1-1h-5.2c0-4.6-3.7-8.3-8.3-8.3c-4.6,0-8.3,3.7-8.3,8.3H29   c-0.5,0-1,0.4-1,1l-2.5,27.6v0.1c0,3.1,2.8,5.5,6.3,5.5h21.4C56.6,63.8,59.5,61.3,59.5,58.2L59.5,58.2L59.5,58.2z M42.5,23.4   c3.4,0,6.2,2.8,6.2,6.2H36.3C36.3,26.2,39.1,23.4,42.5,23.4L42.5,23.4z M53.2,61.7H31.9c-2.3,0-4.1-1.5-4.2-3.4L30,31.7h4.2v3.7   c0,0.6,0.4,1,1,1c0.6,0,1-0.4,1-1v-3.7h12.4v3.7c0,0.6,0.4,1,1,1s1-0.4,1-1v-3.7H55l2.3,26.5C57.4,60.2,55.5,61.7,53.2,61.7   L53.2,61.7z"
   id="path1"
   style="fill:#a3a29c;fill-opacity:1" />&#10;</g>&#10;</svg>
