<?xml version="1.0" encoding="utf-8"?>
<!-- Generator: Adobe Illustrator 18.0.0, SVG Export Plug-In . SVG Version: 6.00 Build 0)  -->
<!DOCTYPE svg PUBLIC "-//W3C//DTD SVG 1.1//EN" "http://www.w3.org/Graphics/SVG/1.1/DTD/svg11.dtd">
<svg version="1.1" id="Layer_1" xmlns="http://www.w3.org/2000/svg" xmlns:xlink="http://www.w3.org/1999/xlink" x="0px" y="0px"
	 viewBox="0 0 85 85" enable-background="new 0 0 85 85" xml:space="preserve">
<path fill="#FFFFFF" d="M63.8,0l-11,0C40.4,0,32.4,8.2,32.4,20.9v9.7H21.3c-1,0-1.7,0.8-1.7,1.7v14c0,1,0.8,1.7,1.7,1.7h11.1v35.3
	c0,1,0.8,1.7,1.7,1.7h14.5c1,0,1.7-0.8,1.7-1.7V48h13c1,0,1.7-0.8,1.7-1.7l0-14c0-0.5-0.2-0.9-0.5-1.2c-0.3-0.3-0.8-0.5-1.2-0.5h-13
	v-8.2c0-3.9,0.9-5.9,6.1-5.9l7.4,0c1,0,1.7-0.8,1.7-1.7v-13C65.5,0.8,64.7,0,63.8,0L63.8,0z M63.8,0"/>
</svg>
