<?xml version="1.0" encoding="utf-8"?>
<!-- Generator: Adobe Illustrator 18.0.0, SVG Export Plug-In . SVG Version: 6.00 Build 0)  -->
<!DOCTYPE svg PUBLIC "-//W3C//DTD SVG 1.1//EN" "http://www.w3.org/Graphics/SVG/1.1/DTD/svg11.dtd">
<svg version="1.1" id="Layer_1" xmlns="http://www.w3.org/2000/svg" xmlns:xlink="http://www.w3.org/1999/xlink" x="0px" y="0px"
	 viewBox="0 0 85 85" enable-background="new 0 0 85 85" xml:space="preserve">
<g>
	<path fill="#D93175" d="M61.6,0H23.5C10.5,0,0,10.5,0,23.5v38.1C0,74.5,10.5,85,23.5,85h38.1C74.5,85,85,74.5,85,61.6V23.5
		C85,10.5,74.5,0,61.6,0L61.6,0z M77.5,61.6c0,8.8-7.1,15.9-15.9,15.9H23.5c-8.8,0-15.9-7.1-15.9-15.9V23.5
		c0-8.8,7.1-15.9,15.9-15.9h38.1c8.8,0,15.9,7.1,15.9,15.9V61.6z M77.5,61.6"/>
	<path fill="#D93175" d="M42.5,20.6c-12.1,0-21.9,9.8-21.9,21.9c0,12.1,9.8,21.9,21.9,21.9c12.1,0,21.9-9.8,21.9-21.9
		C64.4,30.4,54.6,20.6,42.5,20.6L42.5,20.6z M42.5,56.9c-7.9,0-14.4-6.4-14.4-14.4c0-7.9,6.4-14.4,14.4-14.4s14.4,6.4,14.4,14.4
		C56.9,50.4,50.4,56.9,42.5,56.9L42.5,56.9z M42.5,56.9"/>
	<path fill="#D93175" d="M65.4,14.2c-1.5,0-2.9,0.6-3.9,1.6c-1,1-1.6,2.5-1.6,3.9c0,1.5,0.6,2.9,1.6,3.9c1,1,2.5,1.6,3.9,1.6
		c1.5,0,2.9-0.6,3.9-1.6c1-1,1.6-2.5,1.6-3.9c0-1.5-0.6-2.9-1.6-3.9C68.2,14.8,66.8,14.2,65.4,14.2L65.4,14.2z M65.4,14.2"/>
</g>
</svg>
