<?xml version="1.0" encoding="UTF-8" standalone="no"?>
<!-- Generator: Adobe Illustrator 18.0.0, SVG Export Plug-In . SVG Version: 6.00 Build 0)  -->

<svg
   version="1.1"
   id="Layer_1"
   x="0px"
   y="0px"
   width="85px"
   height="85px"
   viewBox="0 0 85 85"
   style="enable-background:new 0 0 85 85;"
   xml:space="preserve"
   xmlns="http://www.w3.org/2000/svg"
   xmlns:svg="http://www.w3.org/2000/svg"><defs
   id="defs2" />&#10;<style
   type="text/css"
   id="style1">&#10;	.st0{fill:#5e5e5e;}&#10;	.st1{fill:#39324B;}&#10;</style>&#10;&#10;<g
   id="g2"
   style="fill:#a3a29c;fill-opacity:1">&#10;	<path
   class="st1"
   d="M45.4,29.5c-4.4-4.4-11.5-4.4-15.9,0c-2.1,2.1-3.3,4.9-3.3,7.9c0,3,1.2,5.8,3.3,7.9c4.4,4.4,11.5,4.4,15.9,0   C49.7,41,49.7,33.9,45.4,29.5z M43.6,43.6c-3.4,3.4-8.9,3.4-12.3,0c-3.4-3.4-3.4-8.9,0-12.3s8.9-3.4,12.3,0S47,40.2,43.6,43.6z"
   id="path1"
   style="fill:#a3a29c;fill-opacity:1" />&#10;	<path
   class="st1"
   d="M63,57.7l-7.2-7.2c-1-1-2.6-1.2-4-0.5l-2-1.9c5.5-6.4,5.2-16-0.8-22c-6.3-6.3-16.6-6.3-22.9,0   s-6.3,16.6,0,22.9c3.2,3.2,7.3,4.7,11.4,4.7c3.8,0,7.5-1.3,10.5-3.9l1.9,1.9c-0.7,1.4-0.5,3,0.5,4l7.2,7.2c1.3,1.3,3.5,1.2,5-0.3   c0.7-0.7,1.1-1.6,1.2-2.5C63.9,59.3,63.6,58.3,63,57.7z M27.8,47.1c-5.3-5.3-5.3-14,0-19.4c5.3-5.3,14-5.3,19.4,0   c5.3,5.3,5.3,14,0,19.4C41.8,52.6,33.1,52.6,27.8,47.1z M60.9,60.9c-0.5,0.5-1.2,0.6-1.5,0.3L52.1,54c-0.3-0.3-0.2-1,0.3-1.5l0,0   c0.6-0.6,1.2-0.5,1.5-0.3l7.2,7.2C61.5,59.8,61.4,60.5,60.9,60.9z"
   id="path2"
   style="fill:#a3a29c;fill-opacity:1" />&#10;</g>&#10;</svg>
