<?xml version="1.0" encoding="utf-8"?>
<!-- Generator: Adobe Illustrator 18.0.0, SVG Export Plug-In . SVG Version: 6.00 Build 0)  -->
<!DOCTYPE svg PUBLIC "-//W3C//DTD SVG 1.1//EN" "http://www.w3.org/Graphics/SVG/1.1/DTD/svg11.dtd">
<svg version="1.1" id="Layer_1" xmlns="http://www.w3.org/2000/svg" xmlns:xlink="http://www.w3.org/1999/xlink" x="0px" y="0px"
	 width="85px" height="85px" viewBox="0 0 85 85" style="enable-background:new 0 0 85 85;" xml:space="preserve">
<style type="text/css">
	.st0{fill:#5e5e5e;}
	.st1{fill:#FFFFFF;}
</style>
<circle class="st0" cx="42.5" cy="42.5" r="42.5"/>
<g>
	<path class="st1" d="M42.3,44.2h0.3c2.5-0.1,4.6-1,6.2-2.7c3.4-3.8,2.8-10.3,2.8-11c-0.2-4.7-2.5-7-4.3-7.9
		c-1.3-0.7-2.9-1.2-4.7-1.3h-0.1c-1,0-2.9,0.1-4.7,1.2c-1.9,1-4.1,3.3-4.3,8c-0.1,0.6-0.6,7.2,2.8,11C37.6,43.3,39.7,44.2,42.3,44.2
		L42.3,44.2z M35.7,30.8C35.7,30.7,35.7,30.7,35.7,30.8c0.3-6.4,4.8-7,6.7-7h0.1c2.4,0.1,6.4,1,6.7,7v0.1c0,0.1,0.6,6.1-2.2,9.2
		c-1.1,1.3-2.6,1.9-4.5,1.9h-0.1c-1.9,0-3.4-0.6-4.5-1.9C35.1,36.9,35.7,30.8,35.7,30.8L35.7,30.8z"/>
	<path class="st1" d="M60.5,55.1L60.5,55.1c0-0.1,0-0.1,0-0.2c-0.1-1.7-0.1-5.8-4-7.1h-0.1c-4-1-7.3-3.3-7.3-3.3
		c-0.5-0.4-1.3-0.2-1.6,0.3c-0.4,0.5-0.2,1.3,0.3,1.6c0.1,0.1,3.7,2.5,8,3.7c2,0.7,2.2,2.9,2.3,4.9c0,0.1,0,0.1,0,0.2
		c0,0.8-0.1,2-0.1,2.7c-1.4,0.8-7,3.6-15.5,3.6S28.4,58.8,27,57.9c-0.1-0.7-0.2-1.9-0.1-2.7c0-0.1,0-0.1,0-0.2
		c0.1-2,0.3-4.2,2.3-4.9c4.3-1.1,7.9-3.6,8-3.7c0.5-0.4,0.7-1.1,0.3-1.6c-0.4-0.5-1.1-0.7-1.6-0.3c0,0-3.3,2.3-7.3,3.3h-0.1
		c-3.8,1.3-3.9,5.4-4,7.1c0,0.1,0,0.1,0,0.2l0,0c0,0.4,0,2.8,0.4,4c0.1,0.2,0.2,0.4,0.4,0.5c0.3,0.1,6.6,4.2,17.2,4.2
		s16.9-4,17.2-4.2c0.2-0.1,0.4-0.3,0.4-0.5C60.6,57.9,60.5,55.5,60.5,55.1L60.5,55.1z"/>
</g>
</svg>
