<?xml version="1.0" encoding="utf-8"?>
<!-- Generator: Adobe Illustrator 28.2.0, SVG Export Plug-In . SVG Version: 6.00 Build 0)  -->
<svg version="1.1" id="Layer_1" xmlns="http://www.w3.org/2000/svg" xmlns:xlink="http://www.w3.org/1999/xlink" x="0px" y="0px"
	 viewBox="0 0 56.693 20.789" style="enable-background:new 0 0 56.693 20.789;" xml:space="preserve">
<style type="text/css">
	.st0{fill:#65BD6D;}
	.st1{fill:#FFFFFF;}
</style>
<g>
	<g>
		<path class="st0" d="M20.789,10.394c0-1.207-0.842-2.317-2.25-3.195c0.495-1.541,0.527-2.903,0.021-3.87
			c0.104-0.131,0.175-0.291,0.199-0.468c0.072-0.531-0.299-1.02-0.83-1.092c-0.331-0.045-0.645,0.082-0.852,0.313
			C16.7,1.954,16.278,1.891,15.82,1.891V2.24h0c0.397,0,0.754,0.05,1.071,0.148c-0.025,0.067-0.044,0.138-0.054,0.212
			c-0.072,0.531,0.299,1.02,0.83,1.092c0.224,0.031,0.44-0.019,0.621-0.125c0.162,0.337,0.256,0.731,0.282,1.182
			c0.037,0.669-0.077,1.431-0.338,2.269c-0.897-0.509-1.993-0.929-3.228-1.232c-0.299-1.221-0.714-2.306-1.215-3.197
			c0.725-0.227,1.41-0.349,2.03-0.349l0-0.348c0,0,0,0,0,0c-0.67,0-1.417,0.134-2.211,0.39C12.728,0.854,11.611,0,10.394,0
			C9.183,0,8.069,0.848,7.19,2.266C6.413,2.02,5.682,1.891,5.025,1.891c-0.942,0-1.732,0.263-2.287,0.819
			c-0.371,0.371-0.611,0.847-0.73,1.402C1.535,4.117,1.124,4.467,1.058,4.95c-0.072,0.531,0.299,1.02,0.83,1.092
			C1.932,6.048,1.974,6.05,2.017,6.05c0.063,0.36,0.157,0.735,0.28,1.121C0.86,8.053,0,9.174,0,10.394
			c0,1.22,0.86,2.341,2.296,3.223c-0.602,1.895-0.503,3.517,0.442,4.461c0.556,0.556,1.345,0.819,2.287,0.819
			c0.657,0,1.388-0.129,2.165-0.375c0.879,1.418,1.993,2.266,3.205,2.266c1.216,0,2.333-0.854,3.214-2.281
			c0.794,0.256,1.541,0.39,2.211,0.39c0.942,0,1.732-0.263,2.287-0.819c0.949-0.949,1.044-2.583,0.432-4.49
			C19.947,12.712,20.789,11.602,20.789,10.394z M17.593,7.064c0.185,0.091,0.361,0.186,0.529,0.283
			c-0.008,0.022-0.015,0.045-0.023,0.067c-0.31,0.867-0.754,1.763-1.31,2.66c-0.402-0.607-0.858-1.217-1.362-1.82
			c-0.076-0.73-0.189-1.433-0.336-2.098C16.003,6.391,16.847,6.695,17.593,7.064z M14.235,15.951
			c-0.531-0.072-1.02,0.299-1.092,0.83c-0.056,0.41,0.154,0.794,0.496,0.981c-0.058,0.113-0.118,0.222-0.178,0.328
			c-0.869-0.306-1.788-0.757-2.714-1.333c0.594-0.394,1.191-0.839,1.781-1.33c0.733-0.076,1.437-0.189,2.105-0.337
			c-0.078,0.305-0.165,0.603-0.259,0.892C14.329,15.969,14.283,15.958,14.235,15.951z M7.064,17.593
			c-0.369-0.747-0.674-1.59-0.908-2.503c0.687,0.152,1.412,0.268,2.168,0.344c0.588,0.489,1.182,0.931,1.773,1.324
			c-0.942,0.586-1.877,1.043-2.76,1.349C7.244,17.943,7.153,17.772,7.064,17.593z M7.338,2.682c0.883,0.306,1.817,0.764,2.76,1.349
			C9.506,4.424,8.912,4.866,8.324,5.355C7.569,5.431,6.843,5.547,6.156,5.699c0.234-0.913,0.539-1.756,0.908-2.503
			C7.153,3.017,7.244,2.845,7.338,2.682z M13.812,7.005c0.456,0.456,0.887,0.925,1.289,1.401c0.063,0.648,0.095,1.313,0.095,1.988
			c0,0.675-0.032,1.341-0.095,1.988c-0.402,0.476-0.833,0.945-1.289,1.401c-0.467,0.467-0.949,0.907-1.438,1.318
			c-0.645,0.062-1.306,0.094-1.979,0.094c-0.65,0-1.291-0.03-1.916-0.088c-0.492-0.412-0.976-0.854-1.445-1.323
			c-0.48-0.48-0.931-0.974-1.351-1.475c-0.058-0.624-0.088-1.264-0.088-1.914c0-0.65,0.03-1.29,0.088-1.914
			c0.42-0.502,0.871-0.996,1.351-1.475c0.469-0.469,0.953-0.911,1.445-1.323c0.625-0.058,1.266-0.088,1.916-0.088
			c0.672,0,1.334,0.032,1.979,0.094C12.863,6.098,13.344,6.538,13.812,7.005z M12.99,5.757c0.597,0.077,1.177,0.18,1.733,0.309
			c0.128,0.554,0.231,1.132,0.308,1.727c-0.308-0.349-0.633-0.694-0.973-1.035C13.707,6.408,13.35,6.074,12.99,5.757z M10.394,5.253
			c-0.492,0-0.976,0.017-1.45,0.05c0.489-0.387,0.984-0.743,1.478-1.065c0.496,0.323,0.993,0.681,1.484,1.069
			C11.412,5.272,10.908,5.253,10.394,5.253z M7.864,5.749c-0.363,0.319-0.723,0.656-1.078,1.01C6.422,7.123,6.076,7.494,5.748,7.868
			c0.078-0.621,0.184-1.224,0.318-1.802C6.643,5.933,7.244,5.827,7.864,5.749z M5.354,8.33c-0.479,0.578-0.913,1.162-1.298,1.743
			c-0.557-0.896-1-1.793-1.31-2.66C2.735,7.383,2.724,7.351,2.713,7.32c0.154-0.088,0.315-0.173,0.482-0.256
			c0.747-0.369,1.59-0.674,2.503-0.908C5.546,6.845,5.43,7.573,5.354,8.33z M5.303,8.946c-0.033,0.473-0.05,0.957-0.05,1.448
			c0,0.492,0.017,0.975,0.05,1.448c-0.378-0.479-0.727-0.963-1.043-1.448C4.576,9.909,4.925,9.425,5.303,8.946z M5.354,12.459
			c0.076,0.758,0.192,1.486,0.344,2.174c-0.913-0.234-1.756-0.539-2.503-0.908c-0.168-0.083-0.328-0.168-0.482-0.256
			c0.011-0.031,0.021-0.063,0.033-0.094c0.31-0.867,0.754-1.763,1.31-2.66C4.442,11.297,4.876,11.881,5.354,12.459z M5.748,12.921
			c0.328,0.374,0.674,0.745,1.038,1.109c0.354,0.354,0.714,0.691,1.078,1.01c-0.62-0.078-1.222-0.184-1.798-0.317
			C5.932,14.145,5.826,13.542,5.748,12.921z M8.944,15.486c0.474,0.033,0.958,0.05,1.45,0.05c0.513,0,1.018-0.019,1.511-0.054
			c-0.491,0.389-0.988,0.746-1.484,1.069C9.928,16.229,9.433,15.873,8.944,15.486z M12.99,15.032c0.36-0.317,0.717-0.65,1.068-1.002
			c0.34-0.34,0.665-0.686,0.973-1.035c-0.077,0.595-0.18,1.173-0.308,1.727C14.166,14.851,13.587,14.955,12.99,15.032z
			 M15.427,12.535c0.504-0.603,0.959-1.213,1.362-1.82c0.557,0.896,1,1.793,1.31,2.66c0.008,0.023,0.016,0.045,0.023,0.067
			c-0.168,0.097-0.344,0.191-0.529,0.283c-0.747,0.369-1.59,0.674-2.503,0.908C15.237,13.967,15.351,13.265,15.427,12.535z
			 M15.481,11.919c0.036-0.498,0.055-1.007,0.055-1.525s-0.019-1.027-0.055-1.525c0.401,0.503,0.771,1.013,1.104,1.525
			C16.252,10.906,15.882,11.416,15.481,11.919z M13.725,3.196c0.369,0.747,0.674,1.59,0.908,2.503
			c-0.667-0.148-1.372-0.261-2.105-0.337c-0.59-0.492-1.187-0.936-1.781-1.33c0.926-0.575,1.844-1.027,2.714-1.333
			C13.551,2.857,13.639,3.023,13.725,3.196z M8.615,1.076c0.57-0.488,1.169-0.735,1.78-0.735s1.209,0.247,1.78,0.735
			c0.395,0.338,0.765,0.779,1.103,1.317c-0.911,0.327-1.877,0.808-2.855,1.428c-0.995-0.63-1.977-1.117-2.901-1.444
			C7.857,1.847,8.223,1.411,8.615,1.076z M2.359,5.99c0.324-0.121,0.572-0.412,0.622-0.778C3.044,4.751,2.772,4.322,2.352,4.17
			c0.108-0.493,0.319-0.9,0.633-1.213C3.46,2.481,4.146,2.24,5.025,2.24c0.607,0,1.276,0.116,1.983,0.334
			C6.503,3.467,6.086,4.558,5.785,5.785c-1.213,0.297-2.292,0.709-3.18,1.205C2.497,6.643,2.415,6.309,2.359,5.99z M1.076,12.174
			c-0.488-0.57-0.735-1.169-0.735-1.78c0-0.611,0.247-1.209,0.735-1.78c0.341-0.399,0.787-0.771,1.332-1.112
			c0.327,0.922,0.812,1.9,1.441,2.892c-0.628,0.992-1.114,1.97-1.441,2.892C1.863,12.946,1.417,12.573,1.076,12.174z M5.025,18.549
			c-0.879,0-1.565-0.241-2.041-0.717c-0.428-0.428-0.667-1.031-0.71-1.792c-0.037-0.662,0.074-1.415,0.33-2.242
			c0.888,0.497,1.967,0.908,3.18,1.205c0.301,1.228,0.718,2.318,1.223,3.212C6.301,18.433,5.632,18.549,5.025,18.549z
			 M12.174,19.713c-0.57,0.488-1.169,0.735-1.78,0.735s-1.209-0.247-1.78-0.735c-0.391-0.335-0.757-0.771-1.093-1.301
			c0.924-0.327,1.906-0.813,2.901-1.444c0.978,0.62,1.944,1.101,2.855,1.428C12.939,18.934,12.57,19.375,12.174,19.713z
			 M18.57,16.04c-0.043,0.761-0.281,1.364-0.71,1.792c-0.475,0.475-1.162,0.717-2.041,0.717c-0.62,0-1.306-0.121-2.03-0.349
			c0.06-0.107,0.119-0.216,0.176-0.328c0.003,0,0.005,0.001,0.008,0.001c0.531,0.072,1.02-0.299,1.092-0.83
			c0.049-0.363-0.109-0.706-0.384-0.91c0.119-0.361,0.226-0.738,0.322-1.13c1.235-0.303,2.331-0.723,3.228-1.232
			C18.494,14.61,18.608,15.371,18.57,16.04z M18.427,13.258c-0.327-0.913-0.809-1.882-1.431-2.863
			c0.622-0.981,1.104-1.95,1.431-2.863c0.524,0.333,0.955,0.696,1.286,1.083c0.488,0.57,0.735,1.169,0.735,1.78
			c0,0.611-0.247,1.209-0.735,1.78C19.382,12.562,18.951,12.924,18.427,13.258z"/>
		<polygon class="st0" points="15.82,1.891 15.82,1.891 15.82,1.891 		"/>
		<circle class="st0" cx="10.394" cy="10.394" r="2.24"/>
	</g>
	<g>
		<path class="st1" d="M25.834,11.707V9.082h1.301c0.18,0,0.338,0.031,0.474,0.094c0.136,0.062,0.243,0.149,0.32,0.26
			c0.078,0.111,0.116,0.239,0.116,0.384c0,0.107-0.027,0.208-0.081,0.302c-0.054,0.094-0.127,0.173-0.219,0.238
			c0.117,0.062,0.211,0.144,0.279,0.244c0.069,0.1,0.103,0.21,0.103,0.33c0,0.152-0.039,0.287-0.116,0.403
			c-0.078,0.116-0.186,0.207-0.326,0.272c-0.14,0.065-0.302,0.098-0.487,0.098H25.834z M26.478,10.128h0.615
			c0.095,0,0.17-0.024,0.225-0.071c0.055-0.047,0.083-0.11,0.083-0.187c0-0.08-0.028-0.143-0.083-0.189
			c-0.055-0.046-0.13-0.069-0.225-0.069h-0.615V10.128z M26.478,11.178h0.671c0.1,0,0.179-0.025,0.238-0.075
			c0.059-0.05,0.088-0.117,0.088-0.203c0-0.085-0.029-0.152-0.088-0.202c-0.059-0.05-0.138-0.075-0.238-0.075h-0.671V11.178z"/>
		<path class="st1" d="M29.226,11.707V9.082h0.645v2.624H29.226z"/>
		<path class="st1" d="M32.364,11.748c-0.197,0-0.381-0.034-0.551-0.103c-0.17-0.069-0.319-0.165-0.446-0.289
			c-0.127-0.124-0.227-0.267-0.298-0.431c-0.071-0.164-0.107-0.341-0.107-0.531s0.036-0.367,0.107-0.53
			c0.071-0.164,0.171-0.307,0.298-0.431c0.127-0.124,0.276-0.22,0.446-0.289c0.17-0.069,0.354-0.103,0.551-0.103
			c0.197,0,0.381,0.034,0.551,0.103c0.17,0.069,0.319,0.165,0.446,0.289c0.127,0.124,0.227,0.267,0.298,0.431
			c0.071,0.164,0.107,0.34,0.107,0.53s-0.036,0.367-0.107,0.531c-0.071,0.164-0.171,0.307-0.298,0.431
			c-0.127,0.124-0.276,0.22-0.446,0.289C32.745,11.713,32.561,11.748,32.364,11.748z M32.364,11.156
			c0.105,0,0.202-0.019,0.292-0.058c0.09-0.039,0.168-0.092,0.234-0.159c0.066-0.068,0.118-0.148,0.156-0.242
			c0.038-0.094,0.056-0.194,0.056-0.302c0-0.11-0.019-0.211-0.056-0.304c-0.037-0.092-0.089-0.173-0.156-0.24
			c-0.066-0.068-0.144-0.121-0.234-0.159c-0.09-0.039-0.187-0.058-0.292-0.058c-0.105,0-0.202,0.019-0.292,0.058
			c-0.09,0.039-0.168,0.092-0.234,0.159c-0.066,0.067-0.118,0.147-0.156,0.24c-0.038,0.092-0.056,0.194-0.056,0.304
			c0,0.108,0.019,0.208,0.056,0.302c0.037,0.094,0.089,0.174,0.156,0.242c0.066,0.068,0.144,0.121,0.234,0.159
			C32.161,11.136,32.259,11.156,32.364,11.156z"/>
		<path class="st1" d="M34.463,11.707l1.076-2.624h0.739l1.061,2.624h-0.697l-0.24-0.633h-1.023l-0.244,0.633H34.463z
			 M35.573,10.559h0.637l-0.315-0.84L35.573,10.559z"/>
		<path class="st1" d="M38.5,11.707V9.652h-0.858v-0.57h2.362v0.57h-0.858v2.054H38.5z"/>
		<path class="st1" d="M42.197,11.748c-0.197,0-0.381-0.034-0.551-0.103s-0.319-0.165-0.446-0.289
			c-0.127-0.124-0.227-0.267-0.298-0.431c-0.071-0.164-0.107-0.341-0.107-0.531s0.036-0.367,0.107-0.53
			c0.071-0.164,0.171-0.307,0.298-0.431c0.127-0.124,0.276-0.22,0.446-0.289s0.354-0.103,0.551-0.103s0.381,0.034,0.551,0.103
			c0.17,0.069,0.319,0.165,0.446,0.289c0.127,0.124,0.227,0.267,0.298,0.431c0.071,0.164,0.107,0.34,0.107,0.53
			s-0.035,0.367-0.107,0.531c-0.071,0.164-0.171,0.307-0.298,0.431c-0.127,0.124-0.276,0.22-0.446,0.289
			C42.578,11.713,42.394,11.748,42.197,11.748z M42.197,11.156c0.105,0,0.203-0.019,0.293-0.058c0.09-0.039,0.168-0.092,0.234-0.159
			c0.066-0.068,0.118-0.148,0.156-0.242c0.038-0.094,0.056-0.194,0.056-0.302c0-0.11-0.019-0.211-0.056-0.304
			s-0.089-0.173-0.156-0.24c-0.066-0.068-0.144-0.121-0.234-0.159c-0.09-0.039-0.187-0.058-0.293-0.058
			c-0.105,0-0.202,0.019-0.292,0.058c-0.09,0.039-0.168,0.092-0.234,0.159c-0.066,0.067-0.118,0.147-0.155,0.24
			c-0.038,0.092-0.056,0.194-0.056,0.304c0,0.108,0.019,0.208,0.056,0.302c0.037,0.094,0.089,0.174,0.155,0.242
			c0.066,0.068,0.144,0.121,0.234,0.159C41.994,11.136,42.092,11.156,42.197,11.156z"/>
		<path class="st1" d="M44.689,11.707V9.082h0.813l0.649,1.237L46.8,9.082h0.813v2.624h-0.607V9.918l-0.862,1.601l-0.862-1.608
			v1.795H44.689z"/>
		<path class="st1" d="M48.798,11.707V9.082h0.645v2.624H48.798z"/>
		<path class="st1" d="M51.943,11.744c-0.2,0-0.386-0.034-0.557-0.103c-0.171-0.069-0.32-0.164-0.448-0.287
			c-0.127-0.122-0.227-0.266-0.298-0.429c-0.071-0.164-0.107-0.341-0.107-0.531c0-0.192,0.036-0.37,0.107-0.534
			c0.071-0.164,0.171-0.307,0.3-0.429c0.129-0.122,0.279-0.218,0.45-0.287c0.171-0.069,0.355-0.103,0.553-0.103
			c0.145,0,0.287,0.021,0.427,0.064c0.14,0.042,0.269,0.102,0.388,0.178c0.119,0.076,0.218,0.167,0.298,0.272l-0.435,0.427
			c-0.092-0.117-0.195-0.205-0.309-0.263c-0.114-0.057-0.237-0.086-0.369-0.086c-0.105,0-0.203,0.019-0.294,0.058
			c-0.091,0.039-0.171,0.092-0.238,0.159c-0.068,0.067-0.12,0.147-0.157,0.24s-0.056,0.194-0.056,0.304
			c0,0.108,0.019,0.207,0.058,0.298c0.039,0.091,0.092,0.171,0.161,0.24c0.069,0.069,0.15,0.122,0.244,0.159
			c0.094,0.038,0.195,0.056,0.305,0.056c0.127,0,0.246-0.028,0.354-0.082c0.109-0.055,0.207-0.136,0.294-0.244l0.423,0.416
			c-0.08,0.103-0.179,0.192-0.296,0.268c-0.117,0.076-0.245,0.135-0.382,0.176C52.222,11.723,52.083,11.744,51.943,11.744z"/>
		<path class="st1" d="M53.818,11.707l1.076-2.624h0.738l1.061,2.624h-0.697l-0.24-0.633h-1.023l-0.244,0.633H53.818z
			 M54.927,10.559h0.637L55.25,9.72L54.927,10.559z"/>
	</g>
</g>
</svg>
