<?xml version="1.0" encoding="utf-8"?>
<!-- Generator: Adobe Illustrator 18.0.0, SVG Export Plug-In . SVG Version: 6.00 Build 0)  -->
<!DOCTYPE svg PUBLIC "-//W3C//DTD SVG 1.1//EN" "http://www.w3.org/Graphics/SVG/1.1/DTD/svg11.dtd">
<svg version="1.1" id="Layer_1" xmlns="http://www.w3.org/2000/svg" xmlns:xlink="http://www.w3.org/1999/xlink" x="0px" y="0px"
	 width="85px" height="85px" viewBox="0 0 85 85" style="enable-background:new 0 0 85 85;" xml:space="preserve">
<style type="text/css">
	.st0{fill:#6C4F6E;}
	.st1{fill:#EEE9DD;}
	.st2{fill:#D5CFBA;}
	.st3{fill:#39324B;}
	.st4{fill:#747080;}
	.st5{fill:#8BC53F;}
	.st6{fill:#FFFFFF;}
</style>
<g>
	<path class="st0" d="M68.2,5.9v5.9H57.9V5.9H22.7v5.9H12.5V5.9H0.7V22h79.2V5.9H68.2z M68.2,5.9"/>
	<path class="st1" d="M12.5,22H0.7v63h79.2V22H12.5z M12.5,22"/>
	<path class="st2" d="M55,32.3H12.5v42.5h55.7V32.3H55z M41.8,35.2H52v10.3H41.8V35.2z M52,58.7H41.8V48.4H52V58.7z M28.6,48.4h10.3
		v10.3H28.6V48.4z M28.6,35.2h10.3v10.3H28.6V35.2z M15.4,35.2h10.3v10.3H15.4V35.2z M15.4,48.4h10.3v10.3H15.4V48.4z M25.7,71.8
		H15.4V61.6h10.3V71.8z M38.9,71.8H28.6V61.6h10.3V71.8z M52,71.8H41.8V61.6H52V71.8z M65.2,71.8H55V61.6h10.3V71.8z M65.2,58.7H55
		V48.4h10.3V58.7z M55,45.5V35.2h10.3v10.3H55z M55,45.5"/>
	<rect x="12.5" y="0" class="st3" width="10.3" height="11.7"/>
	<rect x="57.9" y="0" class="st3" width="10.3" height="11.7"/>
	<rect x="28.6" y="48.4" class="st4" width="10.3" height="10.3"/>
	<path class="st5" d="M84.3,66c0,9.7-7.9,17.6-17.6,17.6c-9.7,0-17.6-7.9-17.6-17.6c0-9.7,7.9-17.6,17.6-17.6
		C76.4,48.4,84.3,56.3,84.3,66L84.3,66z M84.3,66"/>
	<path class="st6" d="M76.3,57.4c-0.7-0.5-1.6-0.3-2,0.4l-8.2,11.8l-5.8-4.8c-0.6-0.5-1.6-0.4-2.1,0.2c-0.5,0.6-0.4,1.6,0.2,2.1
		l7,5.8c0.3,0.2,0.6,0.3,0.9,0.3c0.1,0,0.1,0,0.2,0c0.4-0.1,0.8-0.3,1-0.6l9.1-13.1C77.2,58.8,77,57.9,76.3,57.4L76.3,57.4z
		 M76.3,57.4"/>
</g>
</svg>
