<?xml version="1.0" encoding="utf-8"?>
<!-- Generator: Adobe Illustrator 18.0.0, SVG Export Plug-In . SVG Version: 6.00 Build 0)  -->
<!DOCTYPE svg PUBLIC "-//W3C//DTD SVG 1.1//EN" "http://www.w3.org/Graphics/SVG/1.1/DTD/svg11.dtd">
<svg version="1.1" id="Layer_1" xmlns="http://www.w3.org/2000/svg" xmlns:xlink="http://www.w3.org/1999/xlink" x="0px" y="0px"
	 width="85px" height="85px" viewBox="0 0 85 85" style="enable-background:new 0 0 85 85;" xml:space="preserve">
<style type="text/css">
	.st0{fill:#FAAF40;}
	.st1{fill:#FFFFFF;}
</style>
<g>
	<circle class="st0" cx="42.5" cy="42.5" r="42.5"/>
	<g>
		<g>
			<path class="st1" d="M59.5,52.4c0.1,0.6-0.1,1-0.5,1.4l-4.8,4.8c-0.2,0.2-0.5,0.4-0.8,0.6c-0.3,0.2-0.7,0.3-1,0.3
				c0,0-0.1,0-0.2,0c-0.1,0-0.3,0-0.5,0c-0.5,0-1.2-0.1-2.2-0.2c-1-0.2-2.3-0.5-3.7-1.2c-1.5-0.6-3.2-1.5-5-2.8
				c-1.9-1.2-3.9-2.9-6-5c-1.7-1.7-3.1-3.2-4.2-4.8c-1.1-1.5-2-2.9-2.7-4.2c-0.7-1.3-1.2-2.5-1.5-3.5c-0.3-1-0.6-1.9-0.7-2.7
				c-0.1-0.8-0.2-1.4-0.1-1.8c0-0.4,0-0.7,0-0.7c0-0.3,0.2-0.7,0.3-1c0.2-0.3,0.4-0.6,0.6-0.8l4.8-4.8c0.3-0.3,0.7-0.5,1.2-0.5
				c0.3,0,0.6,0.1,0.8,0.3c0.2,0.2,0.4,0.4,0.6,0.7l3.9,7.3c0.2,0.4,0.3,0.8,0.2,1.3c-0.1,0.5-0.3,0.8-0.6,1.2l-1.8,1.8
				c0,0-0.1,0.1-0.1,0.2c0,0.1-0.1,0.2-0.1,0.3c0.1,0.5,0.3,1.1,0.6,1.7c0.3,0.6,0.7,1.3,1.3,2.1c0.6,0.8,1.5,1.8,2.6,2.9
				c1.1,1.1,2,2,2.9,2.6c0.8,0.6,1.5,1.1,2.1,1.4c0.6,0.3,1,0.5,1.3,0.5l0.5,0.1c0,0,0.1,0,0.2-0.1c0.1,0,0.2-0.1,0.2-0.1l2.1-2.1
				c0.4-0.4,0.9-0.6,1.5-0.6c0.4,0,0.7,0.1,1,0.2h0l7,4.1C59.1,51.5,59.4,51.9,59.5,52.4L59.5,52.4z M59.5,52.4"/>
		</g>
	</g>
</g>
</svg>
