<?xml version="1.0" encoding="utf-8"?>
<!-- Generator: Adobe Illustrator 18.0.0, SVG Export Plug-In . SVG Version: 6.00 Build 0)  -->
<!DOCTYPE svg PUBLIC "-//W3C//DTD SVG 1.1//EN" "http://www.w3.org/Graphics/SVG/1.1/DTD/svg11.dtd">
<svg version="1.1" id="Layer_1" xmlns="http://www.w3.org/2000/svg" xmlns:xlink="http://www.w3.org/1999/xlink" x="0px" y="0px"
	 viewBox="0.3 25.9 84.7 33.4" style="enable-background:new 0.3 25.9 84.7 33.4;" xml:space="preserve">
<style type="text/css">
	.st0{fill:#6C4F6E;}
	.st1{fill:#39324B;}
</style>
<g>
	<path class="st0" d="M65.4,37.6c-1-0.4-2-1.3-1.5-2.4c0.4-1,1.8-1.4,3.2-1c1,0.3,1.9,1.2,1.5,2.4C68.2,37.6,66.6,38.1,65.4,37.6z"
		/>
	<g>
		<path class="st1" d="M24,44.1c0.2-0.9,0.4-2.1,0.6-3.3c0-0.1,0.1-0.2,0.1-0.3c0.1,0.9,0.2,1.9,0.4,2.8l0,0
			c0.6,4.6,1.3,9.4,1.5,10.6c0.2,1.4,2.5,0.8,2.5,0.7l0,0c0,0,0.2-1.4,0.6-2.9c0.6-2.1,0.9-3.2,1.4-4.8c2.8-9.7,11-18.6,23.6-12.7
			c1.6,0.8,1.8-3.9,1.6-4c-13.6-3-23.1,4.3-26.4,16.4L29,50l-0.2,0.8C28.2,45.3,28,40.5,28,34.5c0-0.1,0-0.1,0-0.1
			c-0.1-0.3-0.4-0.5-0.8-0.6c-1-0.4-2.9-0.6-2.9-0.6c-0.2,1-0.4,2.1-0.7,3.7c-0.1,0.5-0.3,1.1-0.3,1.7c-0.3,1.2-0.6,2.7-1,4.4
			C17.9,59.7,8,52.6,4,46.4c-0.1-0.2-4.6,0-3.5,1.4C6,55.1,21.1,60.5,24,44.1z"/>
		<path class="st1" d="M85,57.9c-21.9-5.8-44.8-3.8-67-0.9c-0.9,0.1-1.8,0.4-2.6,0.8c-0.6,0.3-0.5,0.6,0.2,0.5
			c21.8-2.8,44.3-4.8,65.9,0.9c0.7,0.2,1.7-0.2,2.4-0.5C83.9,58.7,85.4,58,85,57.9z"/>
		<path class="st1" d="M51.2,38.3c2,0.8,4.4,1,6.9,0.6l-0.5,1.7l-0.2-0.2c-1.1-1.2-5.6,1.1-7.2,6.3c-0.4,1.3-0.5,2.5-0.3,3.6l0,0
			c-0.3,0.5-0.5,0.6-0.8,0.9c-0.8,0.6-0.5-1-0.1-3c0.5-2.4,0.3-1.3,0.9-3.4c0.7-2.3-0.1-2.3-2.6-3.2c-0.3-0.1-0.5-0.2-0.7-0.3
			c0.3-1,0.4-2.1,0.3-3.1c0-0.1-4,0.4-3.7,1.7c0.1,0.7,0.8,1.3,1.7,1.8c-0.1,1.6-0.6,3.6-1.6,5.6c-0.1,0.1-0.2,0.3-0.3,0.5
			c-0.9,1.7-1.8,3.1-2.4,3.6c-0.8,0.6-0.8,0.7-0.5-1.2c0.6-3.5,1.4-5.5,1.5-5.7c0.4-1.3-1.9-3.7-2.3-4.2c-1.1-1.2-5.6,1.1-7.2,6.3
			c-0.3,1-0.4,1.9-0.4,2.8c0.1,2.3,1.2,4,2.7,4c1.9,0,2.8-3.1,3.4-4.9c0-0.1,0.1-0.1,0,0c-0.6,2.2-0.4,4.6,0.5,4.9
			c0.6,0.3,1.4-0.4,2.4-1.5c0.8-0.9,1.7-2.2,2.4-3.6c0.1-0.1,0.1-0.2,0.2-0.4c0.8-1.6,2-3.6,2.8-5.8c0.2,0.1,0.4,0.2,0.5,0.2
			c0.6,0.3,0.4,0-0.4,2.5c-1.3,4.4-0.8,8.1,0.1,8.5c0.6,0.3,1.4-0.2,2.4-1.2c0.5-0.5,0.8-1,1.2-1.5l0,0c0.4,1.5,1.3,2.6,2.5,2.6
			c1.9,0,2.8-3.3,3.3-5.1c0-0.1,0.1-0.1,0,0c-0.6,2.2-0.3,4.5,0.5,4.9c0.6,0.3,1.4-0.2,2.4-1.2c0.3-0.4,0.7-0.8,1-1.3l0,0
			c0.1,1.5,0.7,2.4,1.3,2.6c0.6,0.3,1.6-0.2,2.4-1.3c0.4-0.6,0.9-1.4,1.5-2.3c-0.6,3.3,0.7,4.1,2.3,3.8c0,0,0-0.1,0.3-1.4
			c2.1-6.8,3.9-10.3,5.2-10.3c0.9,0-0.1,1.3-1.3,5c-1.3,4.1-1.5,7.1-0.4,7.7c0.5,0.2,1.2,0.1,1.9-0.5l0,0c6.9-5.6,8.5-13.7,7.2-17.2
			c-1-3-6.5-1.6-6.5-1.6c-0.2,0.7,1.9,1.8,3.3,4.3c2.1,3.8,0.3,8.1-1.6,11.4c-0.6,0.9-1.2,1.6-1.5,1.9c-0.7,0.8-0.3-1.7,1-5.6
			c1.3-4.1,1.2-6.8-0.9-6.8c-1.6,0-3.1,2.3-4.5,5.4c1.1-3.6,1.9-5,2-5.3c0.3-1.1-3.5-1.3-3.5-1.2c-0.6,2.7-1.9,6.4-2.6,9.4
			c-0.7,1.3-1.5,2.7-2,3.3c-0.6,0.8-0.7,0.4-0.4-1.5c0.6-3.5,2.9-9.8,3-10c0.2-0.8-2.5-1.3-3.2-1.2c0,0,0,0.1-0.1,0.5
			c-0.3,1-1.6,5.6-2.3,7.7c-0.3,1.1-0.5,2.1-0.5,2.9c-0.4,0.7-0.8,1.2-1,1.4c-0.8,0.6-0.9,0.7-0.6-1.2c0.3-1.7,2.7-9.1,3.6-11.9
			l0.1-0.2c0.6-0.2,1.3-0.4,1.9-0.7c-0.3-0.3-0.6-0.6-0.8-0.9c-0.2,0.1-0.4,0.1-0.7,0.1c1.7-5.3,3.4-10.1,5.9-10.1
			c2.7,0,2.7,4.3-0.2,7.3c0.3,0.2,0.6,0.4,0.9,0.6c3.8-3.4,5.5-8.7,0.5-8.7c-5.4,0-8.9,6.1-10.7,11.2c-2.9-0.1-6-0.9-8.9-2.7
			C49.5,34.1,47.9,37,51.2,38.3z M38.7,43.5l-1.1,3.8c-1,3.4-1.4,4.7-2.3,4.7c-0.9,0-0.8-2.2,0.1-5.2c0.9-3,2.7-5.8,3.8-5.3
			C39.4,41.6,39,42.4,38.7,43.5z M55.6,47.3c-1,3.4-1.4,4.7-2.3,4.7c-0.9,0-0.8-2.2,0.1-5.2c0.9-3,2.7-5.8,3.8-5.3
			c0.1,0,0.1,0.1,0.2,0.1C56.6,43.9,55.8,46.6,55.6,47.3z"/>
	</g>
</g>
</svg>
