<?xml version="1.0" encoding="utf-8"?>
<!-- Generator: Adobe Illustrator 18.0.0, SVG Export Plug-In . SVG Version: 6.00 Build 0)  -->
<!DOCTYPE svg PUBLIC "-//W3C//DTD SVG 1.1//EN" "http://www.w3.org/Graphics/SVG/1.1/DTD/svg11.dtd">
<svg version="1.1" id="Layer_1" xmlns="http://www.w3.org/2000/svg" xmlns:xlink="http://www.w3.org/1999/xlink" x="0px" y="0px"
	 width="85px" height="85px" viewBox="0 0 85 85" style="enable-background:new 0 0 85 85;" xml:space="preserve">
<style type="text/css">
	.st0{fill:#E6E6E6;}
	.st1{fill:#FFCC66;}
	.st2{fill:#606060;}
	.st3{fill:#DDAC57;}
	.st4{fill:#EAAA5E;}
	.st5{fill:#D1D1D1;}
</style>
<g>
	<path class="st0" d="M57.1,57.9h25.3c1.5,0,2.7-1.2,2.7-2.7V42.1c0-1.2-0.9-2.3-2-2.6l-8.4-2.1l-5.3-9.7c-0.5-0.9-1.6-1.6-2.7-1.6
		h-9.5V57.9z"/>
	<path class="st1" d="M14.3,57.9h42.8V19.5H14.3c-1.5,0-2.7,1.2-2.7,2.7v8.3h13.3c1.2,0,2.1,0.9,2.1,2.1l0,0c0,1.2-0.9,2.1-2.1,2.1
		H11.6v20.5C11.6,56.7,12.9,57.9,14.3,57.9"/>
	<path class="st2" d="M26.7,50.3c4.2,0,7.6,3.4,7.6,7.6s-3.4,7.6-7.6,7.6s-7.6-3.4-7.6-7.6S22.5,50.3,26.7,50.3"/>
	<path class="st3" d="M26.7,53.9c2.2,0,4,1.8,4,4c0,2.2-1.8,4-4,4s-4-1.8-4-4C22.7,55.7,24.5,53.9,26.7,53.9"/>
	<path class="st2" d="M74.5,50.3c4.2,0,7.6,3.4,7.6,7.6s-3.4,7.6-7.6,7.6s-7.6-3.4-7.6-7.6C66.9,53.7,70.3,50.3,74.5,50.3"/>
	<path class="st3" d="M74.5,53.9c2.2,0,4,1.8,4,4c0,2.2-1.8,4-4,4s-4-1.8-4-4C70.4,55.7,72.2,53.9,74.5,53.9"/>
	<g>
		<path class="st1" d="M2.1,26.2h32.4c1.2,0,2.1,0.9,2.1,2.1l0,0c0,1.2-0.9,2.1-2.1,2.1H2.1c-1.2,0-2.1-0.9-2.1-2.1l0,0
			C0,27.2,0.9,26.2,2.1,26.2"/>
		<path class="st1" d="M9,34.8h15.9c1.2,0,2.1,0.9,2.1,2.1l0,0c0,1.2-0.9,2.1-2.1,2.1H9c-1.2,0-2.1-0.9-2.1-2.1l0,0
			C6.9,35.7,7.8,34.8,9,34.8"/>
		<path class="st1" d="M3.5,34.8L3.5,34.8c1.2,0,2.1,0.9,2.1,2.1V37c0,1.2-0.9,2.1-2.1,2.1l0,0c-1.2,0-2.1-0.9-2.1-2.1v-0.2
			C1.5,35.7,2.3,34.8,3.5,34.8"/>
	</g>
	<g>
		<path class="st4" d="M57.1,55.3H33.8c0.3,0.9,0.5,1.7,0.5,2.7h22.7V55.3z"/>
		<path class="st4" d="M19.1,57.9c0-0.9,0.2-1.8,0.5-2.7h-8c0,1.5,1.2,2.7,2.7,2.7H19.1z"/>
	</g>
	<g>
		<path class="st5" d="M57.1,55.3v2.7h9.8c0-0.9,0.2-1.8,0.5-2.7H57.1z"/>
		<path class="st5" d="M81.6,55.3c0.3,0.9,0.5,1.7,0.5,2.7h0.3c1.5,0,2.7-1.2,2.7-2.7H81.6z"/>
	</g>
	<rect x="54.6" y="19.5" class="st4" width="2.4" height="38.4"/>
</g>
</svg>
