<?xml version="1.0" encoding="utf-8"?>
<!-- Generator: Adobe Illustrator 18.0.0, SVG Export Plug-In . SVG Version: 6.00 Build 0)  -->
<!DOCTYPE svg PUBLIC "-//W3C//DTD SVG 1.1//EN" "http://www.w3.org/Graphics/SVG/1.1/DTD/svg11.dtd">
<svg version="1.1" id="Layer_1" xmlns="http://www.w3.org/2000/svg" xmlns:xlink="http://www.w3.org/1999/xlink" x="0px" y="0px"
	 width="85px" height="85px" viewBox="0 0 85 85" style="enable-background:new 0 0 85 85;" xml:space="preserve">
<style type="text/css">
	.st0{fill:#8BC53F;}
	.st1{fill:#FFFFFF;}
</style>
<g>
	<circle class="st0" cx="42.5" cy="42.5" r="42.5"/>
	<path class="st1" d="M60.1,25.5c-11.7,7.2-20.1,16.2-23.5,20.2l-8.8-6.9c-0.2-0.2-5,4.1-4.9,4.2l16,16.2c0.1,0.1,0.3,0.2,0.5,0.2
		c0,0,0.1,0,0.1,0c0.2,0,0.4-0.2,0.5-0.4c2.6-6.6,11.1-20.3,21.9-30.3c0.2-0.2,0.3-0.5,0.2-0.7C62,28.1,60.3,25.4,60.1,25.5
		L60.1,25.5z M60.1,25.5"/>
</g>
</svg>
